<?xml version="1.0" encoding="UTF-8" standalone="no"?>
<svg
   xmlns:dc="http://purl.org/dc/elements/1.1/"
   xmlns:cc="http://creativecommons.org/ns#"
   xmlns:rdf="http://www.w3.org/1999/02/22-rdf-syntax-ns#"
   xmlns:svg="http://www.w3.org/2000/svg"
   xmlns="http://www.w3.org/2000/svg"
   xmlns:sodipodi="http://sodipodi.sourceforge.net/DTD/sodipodi-0.dtd"
   xmlns:inkscape="http://www.inkscape.org/namespaces/inkscape"
   viewBox="0 0 16 16"
   version="1.1"
   id="svg6"
   sodipodi:docname="Antu_vcs-update-required.svg"
   width="16"
   height="16"
   inkscape:version="0.92.2 2405546, 2018-03-11">
  <metadata
     id="metadata12">
    <rdf:RDF>
      <cc:Work
         rdf:about="">
        <dc:format>image/svg+xml</dc:format>
        <dc:type
           rdf:resource="http://purl.org/dc/dcmitype/StillImage" />
        <dc:title></dc:title>
      </cc:Work>
    </rdf:RDF>
  </metadata>
  <defs
     id="defs10" />
  <sodipodi:namedview
     pagecolor="#ffffff"
     bordercolor="#666666"
     borderopacity="1"
     objecttolerance="10"
     gridtolerance="10"
     guidetolerance="10"
     inkscape:pageopacity="0"
     inkscape:pageshadow="2"
     inkscape:window-width="959"
     inkscape:window-height="1061"
     id="namedview8"
     showgrid="false"
     fit-margin-top="0"
     fit-margin-left="0"
     fit-margin-right="0"
     fit-margin-bottom="0"
     inkscape:zoom="10.727273"
     inkscape:cx="-6.9618644"
     inkscape:cy="7.9999854"
     inkscape:window-x="2880"
     inkscape:window-y="0"
     inkscape:window-maximized="0"
     inkscape:current-layer="svg6" />
  <circle
     cx="8"
     cy="-8"
     r="8"
     transform="scale(1,-1)"
     id="circle2"
     style="opacity:0.98000004;fill:#1d99f3" />
  <path
     d="M 12.347552,6.5529728 C 12.109353,5.9982538 11.789021,5.5196982 11.386701,5.1173777 10.984308,4.7150572 10.505825,4.3945817 9.9510338,4.1564546 9.3963148,3.9181117 8.8143382,3.7990122 8.20496,3.7990122 c -0.5742093,0 -1.1298632,0.1083115 -1.6671056,0.3251503 C 6.0007558,4.3406417 5.5230632,4.6466613 5.105208,5.0412144 L 4.3433594,4.2852633 C 4.2261298,4.16415 4.0914237,4.1368204 3.9390252,4.2032026 3.782743,4.2696566 3.7046379,4.3849444 3.7046379,4.5489939 v 2.62508 c 0,0.1015511 0.037111,0.1894373 0.1113322,0.2636587 0.074293,0.074221 0.1621796,0.1113322 0.2637306,0.1113322 h 2.62508 c 0.1641215,0 0.2793373,-0.078105 0.3457195,-0.2343873 C 7.1168823,7.162351 7.0895527,7.0275729 6.9684394,6.9103433 L 6.1656684,6.1017467 C 6.4391802,5.8439135 6.7516726,5.645702 7.1035052,5.5069683 7.4551221,5.3683066 7.8222737,5.2989038 8.2051038,5.2989038 c 0.4062761,0 0.7939968,0.079184 1.1629464,0.237336 0.3691654,0.158224 0.6884178,0.372114 0.9579748,0.6416702 0.269556,0.2694842 0.483446,0.588809 0.64167,0.9579744 0.158152,0.3691654 0.237264,0.7568142 0.237264,1.1629464 0,0.406348 -0.07911,0.7939968 -0.237264,1.1629464 -0.158224,0.3691654 -0.372114,0.6884898 -0.64167,0.9580468 -0.269557,0.269556 -0.5888813,0.483446 -0.9579748,0.641598 -0.3691653,0.158224 -0.756958,0.237336 -1.1629464,0.237336 -0.4648908,0 -0.904322,-0.101551 -1.3184374,-0.304653 C 6.472623,10.791003 6.1230198,10.503898 5.837857,10.132719 c -0.02733,-0.03905 -0.07192,-0.06257 -0.134778,-0.07041 -0.058615,0 -0.1074485,0.01755 -0.1465011,0.05272 l -0.802771,0.808668 c -0.031213,0.03136 -0.047827,0.07127 -0.049769,0.120106 -0.00194,0.04891 0.010788,0.09278 0.038118,0.13183 0.4258384,0.515666 0.9414328,0.91511 1.5469273,1.198259 0.6054945,0.283149 1.244216,0.424831 1.9160927,0.424831 0.6093781,0 1.1914267,-0.119171 1.7461456,-0.357442 0.5547185,-0.238271 1.0331305,-0.558675 1.4355955,-0.960923 0.40232,-0.402464 0.722796,-0.880876 0.960923,-1.435595 0.238271,-0.5547192 0.35737,-1.1368397 0.35737,-1.746146 0,-0.60945 -0.119171,-1.1912828 -0.357442,-1.7460018"
     id="path4"
     inkscape:connector-curvature="0"
     style="fill:#ffffff;stroke-width:0.07192" />
</svg>
